<svg xmlns="http://www.w3.org/2000/svg" xml:space="preserve" version="1.1"
viewBox="0 0 17.04 17.04"
 xmlns:xlink="http://www.w3.org/1999/xlink">
 <g>
  <path d="M15.15 0l-13.26 0c-1.05,0 -1.89,0.85 -1.89,1.89l0 2.84c0,0.52 0.43,0.95 0.95,0.95 0.52,0 0.94,-0.43 0.94,-0.95l0 -1.89c0,-0.52 0.43,-0.95 0.95,-0.95l11.36 0c0.52,0 0.95,0.43 0.95,0.95l0 11.36c0,0.52 -0.43,0.95 -0.95,0.95l-11.36 0c-0.52,0 -0.95,-0.43 -0.95,-0.95l0 -1.89c0,-0.52 -0.42,-0.95 -0.94,-0.95 -0.52,0 -0.95,0.43 -0.95,0.95l0 2.84c0,1.04 0.85,1.89 1.89,1.89l13.26 0c1.04,0 1.89,-0.85 1.89,-1.89l0 -13.26c0,-1.04 -0.85,-1.89 -1.89,-1.89z"/>
  <path id="exit_arrow" d="M7.37 12.58c0.37,0.37 0.97,0.37 1.34,0l3.4 -3.4c0.37,-0.37 0.37,-0.96 0,-1.33l-3.4 -3.4c-0.37,-0.37 -0.97,-0.37 -1.34,0 -0.36,0.37 -0.36,0.96 0,1.33l1.78 1.79 -8.2 0c-0.52,0 -0.95,0.43 -0.95,0.95 0,0.52 0.43,0.95 0.95,0.95l8.2 0 -1.78 1.78c-0.36,0.37 -0.36,0.97 0,1.33z"/>
 </g>
</svg>
